<?xml version="1.0" standalone="no"?>
<!DOCTYPE svg PUBLIC "-//W3C//DTD SVG 20010904//EN"
 "http://www.w3.org/TR/2001/REC-SVG-20010904/DTD/svg10.dtd">
<svg version="1.0" xmlns="http://www.w3.org/2000/svg"
 width="112.000000pt" height="112.000000pt" viewBox="0 0 112.000000 112.000000"
 preserveAspectRatio="xMidYMid meet">
<metadata>
Created by potrace 1.11, written by Peter Selinger 2001-2013
</metadata>
<g transform="translate(0.000000,112.000000) scale(0.100000,-0.100000)"
fill="#000000" stroke="none">
<path d="M622 1080 c-49 -10 -78 -29 -101 -64 -9 -13 -32 -42 -52 -63 -19 -21
-45 -53 -58 -71 -12 -18 -28 -32 -34 -31 -28 3 -35 -4 -52 -58 -10 -32 -27
-66 -38 -78 -26 -27 -82 -148 -96 -210 -21 -92 -22 -100 -24 -156 -2 -56 -18
-89 -43 -89 -7 0 -23 -14 -36 -30 -12 -17 -30 -30 -40 -30 -11 0 -17 -4 -14
-9 4 -5 -3 -7 -14 -4 -19 5 -20 0 -20 -91 l0 -96 417 2 418 3 -3 43 c-4 50 33
152 55 152 16 0 116 96 132 127 6 13 11 38 9 57 -1 22 5 42 16 54 75 83 81
331 11 442 -19 30 -30 57 -52 130 -4 12 -7 11 -12 -5 -6 -14 -10 -5 -16 35 -9
53 -9 53 -13 18 -2 -21 -6 -38 -9 -38 -3 0 -19 10 -35 22 -51 36 -208 56 -296
38z"/>
</g>
</svg>
